<?xml version="1.0" standalone="no"?><!DOCTYPE svg PUBLIC "-//W3C//DTD SVG 1.1//EN" "http://www.w3.org/Graphics/SVG/1.1/DTD/svg11.dtd"><svg t="1578445076107" class="icon" viewBox="0 0 1024 1024" version="1.1" xmlns="http://www.w3.org/2000/svg" p-id="1598" xmlns:xlink="http://www.w3.org/1999/xlink" width="32" height="32"><defs><style type="text/css"></style></defs><path d="M138.026667 262.4C107.093333 274.56 85.333333 305.706667 85.333333 341.333333v512c0 47.146667 38.186667 85.333333 85.333334 85.333334h682.666666c47.146667 0 85.333333-38.186667 85.333334-85.333334V341.333333c0-47.146667-38.186667-85.333333-85.333334-85.333333H354.346667l352.64-142.293333L677.546667 42.666667 138.026667 262.4zM298.666667 853.333333c-70.613333 0-128-57.386667-128-128s57.386667-128 128-128 128 57.386667 128 128-57.386667 128-128 128z m554.666666-341.333333h-85.333333v-85.333333h-85.333333v85.333333H170.666667v-170.666667h682.666666v170.666667z" p-id="1599"></path></svg>