<?xml version="1.0" standalone="no"?><!DOCTYPE svg PUBLIC "-//W3C//DTD SVG 1.1//EN" "http://www.w3.org/Graphics/SVG/1.1/DTD/svg11.dtd"><svg t="1578445062746" class="icon" viewBox="0 0 1024 1024" version="1.1" xmlns="http://www.w3.org/2000/svg" p-id="1451" xmlns:xlink="http://www.w3.org/1999/xlink" width="32" height="32"><defs><style type="text/css"></style></defs><path d="M1000.448 951.296L771.072 721.92c143.36-169.984 135.168-424.96-24.576-584.704C577.536-30.72 304.128-30.72 135.168 137.216c-168.96 168.96-168.96 442.368 0 611.328 159.744 159.744 414.72 167.936 584.704 24.576L948.224 1003.52c14.336 14.336 37.888 14.336 52.224 0 14.336-14.336 14.336-37.888 0-52.224zM187.392 697.344c-140.288-140.288-140.288-367.616 0-507.904C327.68 49.152 555.008 49.152 695.296 189.44c140.288 140.288 140.288 367.616 0 507.904-140.288 140.288-368.64 140.288-507.904 0z" fill="#333333" p-id="1452"></path></svg>